<?xml version="1.0" standalone="no"?>
<!DOCTYPE svg PUBLIC "-//W3C//DTD SVG 20010904//EN"
 "http://www.w3.org/TR/2001/REC-SVG-20010904/DTD/svg10.dtd">
<svg version="1.0" xmlns="http://www.w3.org/2000/svg"
 width="283.000000pt" height="210.000000pt" viewBox="0 0 283.000000 210.000000"
 preserveAspectRatio="xMidYMid meet">

<g transform="translate(0.000000,210.000000) scale(0.100000,-0.100000)"
fill="#DD3E28" stroke="none">
<path d="M2023 1947 c-18 -7 -36 -16 -41 -22 -20 -23 -51 -124 -58 -188 -3
-37 -10 -69 -14 -72 -4 -3 -63 3 -130 12 -110 14 -122 18 -130 39 -21 55 -102
68 -120 18 -5 -13 -17 -22 -27 -22 -10 1 -125 -36 -255 -82 l-238 -83 -39 -52
c-60 -80 -73 -138 -78 -366 -5 -188 -4 -198 18 -249 13 -30 45 -81 72 -114
l48 -61 -320 -27 -321 -27 -79 -60 c-82 -63 -129 -115 -112 -126 5 -3 22 10
38 30 15 19 60 60 98 91 l70 56 -61 -58 c-62 -59 -104 -113 -104 -133 0 -23
29 -10 49 23 37 60 56 66 27 9 -14 -29 -26 -54 -26 -55 0 -2 37 -2 83 0 68 3
85 7 98 24 14 18 17 19 22 4 4 -10 12 -14 18 -10 6 3 43 8 83 9 95 4 127 10
137 26 5 8 9 10 9 4 0 -5 11 -11 25 -11 14 -1 23 2 20 6 -3 5 4 6 15 3 31 -8
24 -19 -39 -63 -70 -47 -159 -155 -136 -164 10 -3 28 14 55 52 38 53 217 202
243 202 15 0 -24 -39 -97 -95 -61 -48 -136 -146 -136 -180 0 -21 36 -37 78
-33 30 2 37 0 37 -15 0 -42 31 -49 170 -42 147 7 384 49 1090 195 77 16 239
47 360 70 121 22 232 43 248 46 41 8 35 39 -15 71 -24 15 -73 52 -110 81 -66
53 -67 53 -165 64 -125 14 -88 16 -467 -28 -198 -22 -330 -34 -335 -28 -20 21
-42 213 -55 497 -9 166 -18 346 -20 399 l-5 97 42 -5 c313 -42 803 -101 807
-97 3 2 -21 29 -52 59 -49 47 -58 61 -64 102 -12 84 -34 172 -55 215 -17 36
-29 46 -69 60 -26 9 -49 17 -51 16 -2 0 -18 -6 -36 -12z m-33 -104 c-11 -17
-11 -17 -6 0 3 10 6 24 7 30 0 9 2 9 5 0 3 -7 0 -20 -6 -30z m-13 -60 c-3 -10
-5 -4 -5 12 0 17 2 24 5 18 2 -7 2 -21 0 -30z m-10 -90 c-3 -10 -5 -2 -5 17 0
19 2 27 5 18 2 -10 2 -26 0 -35z m-657 -666 c0 -58 7 -108 24 -165 28 -96 22
-108 -45 -99 -22 3 -42 7 -44 9 -1 1 -6 78 -10 171 l-7 167 41 0 41 0 0 -83z
m-122 -454 c-3 -19 -27 -23 -211 -36 -56 -4 -65 -3 -50 7 10 7 45 18 78 24 33
6 69 13 80 16 11 2 39 4 63 5 36 1 43 -2 40 -16z m-593 -85 c2 -2 -3 -8 -9
-14 -10 -9 -15 -7 -24 7 -10 15 -8 17 10 14 11 -3 22 -6 23 -7z m42 5 c-4 -3
1 -12 11 -19 16 -12 16 -13 0 -14 -9 0 -20 5 -23 10 -6 10 2 30 12 30 4 0 3
-3 0 -7z m57 -4 c-3 -5 -1 -9 5 -9 5 0 12 5 14 10 3 6 4 5 3 -2 -2 -11 -25
-14 -58 -9 -19 3 -6 16 17 17 14 1 22 -2 19 -7z m-156 -7 c9 -6 6 -12 -12 -20
-23 -10 -26 -6 -17 26 2 5 16 1 29 -6z"/>
</g>
</svg>
