<?xml version="1.0" standalone="no"?>
<!DOCTYPE svg PUBLIC "-//W3C//DTD SVG 20010904//EN"
 "http://www.w3.org/TR/2001/REC-SVG-20010904/DTD/svg10.dtd">
<svg version="1.0" xmlns="http://www.w3.org/2000/svg"
 width="280.000000pt" height="232.000000pt" viewBox="0 0 280.000000 232.000000"
 preserveAspectRatio="xMidYMid meet">

<g transform="translate(0.000000,232.000000) scale(0.100000,-0.100000)"
fill="#DD3E28" stroke="none">
<path d="M700 1810 c-7 -17 -64 -79 -126 -139 -63 -59 -114 -111 -114 -114 0
-5 27 -64 111 -245 21 -46 39 -85 39 -87 0 -2 20 -45 44 -97 57 -122 80 -173
192 -419 89 -197 152 -315 162 -304 3 2 0 10 -5 17 -5 7 -17 31 -25 53 -9 22
-37 84 -62 137 -25 54 -46 100 -46 102 0 2 -22 52 -50 111 -27 59 -50 108 -50
111 0 2 -15 37 -33 76 -19 40 -67 147 -107 237 l-74 164 140 133 c76 73 144
133 151 134 6 0 15 -4 18 -10 3 -5 11 -10 16 -10 6 0 -10 26 -35 58 -45 60
-110 122 -125 122 -5 0 -14 -14 -21 -30z m-60 -199 c0 -5 -20 -14 -44 -20 -67
-17 -78 -12 -21 9 59 22 65 23 65 11z"/>
<path d="M1707 1740 c-27 -10 -65 -31 -85 -46 -29 -22 -228 -205 -358 -329
-11 -11 -42 -39 -67 -63 -26 -23 -47 -47 -47 -52 0 -5 -5 -21 -10 -35 l-10
-26 -33 23 c-17 12 -96 88 -174 168 -95 98 -145 142 -152 135 -13 -14 400
-434 454 -462 67 -34 325 -188 324 -193 -2 -14 -521 -475 -532 -472 -9 3 -9 1
0 -9 15 -15 207 -14 408 1 66 5 172 10 235 11 63 0 126 5 140 9 14 4 21 8 16
9 -5 1 2 10 15 22 45 38 263 233 369 330 58 52 118 106 134 120 15 13 42 44
59 69 17 25 37 51 44 58 35 35 -1 147 -55 172 -33 15 -114 12 -154 -5 -32 -13
-126 -78 -138 -95 -3 -4 -57 -13 -122 -20 l-116 -13 -65 27 -65 28 -18 66
c-11 37 -18 74 -16 82 3 19 19 101 31 158 5 27 5 45 -2 49 -6 3 3 17 20 32 17
14 45 46 62 70 17 24 31 40 31 35 0 -5 5 -2 10 6 27 41 -1 128 -47 149 -30 14
-28 14 -86 -9z m32 -106 c-13 -16 -29 -10 -29 11 0 8 7 11 20 8 16 -4 18 -8 9
-19z m-246 -314 c6 0 3 -8 -6 -17 -16 -16 -19 -16 -27 -3 -14 22 -12 33 6 26
9 -3 21 -6 27 -6z m827 -259 c0 -10 -22 -31 -32 -31 -4 0 -8 11 -8 24 0 19 4
23 20 19 11 -3 20 -8 20 -12z m-401 -247 c7 -6 -21 -34 -29 -29 -4 3 -10 14
-13 25 -4 18 -2 20 16 14 12 -3 24 -8 26 -10z"/>
</g>
</svg>
